<svg 
 xmlns="http://www.w3.org/2000/svg"
 xmlns:xlink="http://www.w3.org/1999/xlink"
 width="20px" height="5px">
<path fill-rule="evenodd"  fill="rgb(142, 198, 65)"
 d="M17.508,4.054 L9.461,4.054 C9.829,3.621 10.060,3.067 10.060,2.455 C10.060,1.865 9.845,1.331 9.501,0.905 L17.508,0.905 C18.402,0.905 19.127,1.610 19.127,2.478 C19.127,3.350 18.402,4.054 17.508,4.054 ZM5.104,2.455 C5.104,3.067 5.335,3.621 5.703,4.054 L1.612,4.054 C0.718,4.054 -0.007,3.350 -0.007,2.478 C-0.007,1.610 0.718,0.905 1.612,0.905 L5.663,0.905 C5.319,1.331 5.104,1.865 5.104,2.455 Z"/>
</svg>